<?xml version="1.0" standalone="no"?>
<!DOCTYPE svg PUBLIC "-//W3C//DTD SVG 20010904//EN"
 "http://www.w3.org/TR/2001/REC-SVG-20010904/DTD/svg10.dtd">
<svg version="1.0" xmlns="http://www.w3.org/2000/svg"
 width="512.000000pt" height="512.000000pt" viewBox="0 0 512.000000 512.000000"
 preserveAspectRatio="xMidYMid meet">
<metadata>
Created by potrace 1.14, written by Peter Selinger 2001-2017
</metadata>
<g transform="translate(0.000000,512.000000) scale(0.100000,-0.100000)"
fill="#000000" stroke="none">
<path d="M3184 4329 c-162 -29 -382 -169 -471 -301 -14 -21 -30 -38 -36 -38
-6 0 -8 -3 -4 -6 3 -3 -4 -23 -17 -43 -27 -43 -57 -107 -61 -130 -2 -9 -4 -17
-5 -18 -2 -2 -4 -7 -5 -13 -1 -5 -4 -12 -5 -15 -1 -3 -4 -9 -5 -15 -1 -5 -4
-11 -5 -12 -4 -5 -10 -61 -14 -131 -5 -77 6 -96 51 -91 246 26 438 159 566
394 62 113 110 328 91 407 -6 23 -12 24 -80 12z"/>
<path d="M3040 3460 c-41 -10 -149 -47 -240 -81 -116 -44 -178 -62 -210 -62
-43 0 -123 25 -370 116 -77 28 -96 31 -200 31 -164 0 -230 -14 -363 -80 -180
-89 -311 -223 -404 -411 -26 -55 -50 -105 -52 -113 -2 -8 -12 -44 -22 -80 -11
-36 -22 -81 -24 -100 -3 -19 -9 -62 -14 -95 -9 -60 -7 -360 3 -393 3 -9 7 -37
10 -62 12 -98 74 -327 131 -475 113 -296 347 -643 525 -779 148 -114 265 -119
502 -23 155 63 222 77 343 73 105 -3 131 -10 360 -99 83 -33 96 -35 190 -33
85 2 109 6 158 29 122 56 232 170 386 399 28 42 51 81 51 86 0 6 4 12 8 14 21
8 182 361 182 398 0 4 -31 26 -70 49 -313 186 -449 499 -377 871 11 55 59 164
100 228 49 76 116 148 198 214 56 45 57 46 40 70 -86 130 -269 253 -446 299
-114 30 -295 34 -395 9z"/>
</g>
</svg>
